<?xml version="1.0" encoding="utf-8"?>
<!-- Generate more at customizr.net -->
<!DOCTYPE svg PUBLIC "-//W3C//DTD SVG 1.1//EN" "http://www.w3.org/Graphics/SVG/1.1/DTD/svg11.dtd">
<svg id="linkedin" class="custom-icon" version="1.1" xmlns="http://www.w3.org/2000/svg" xmlns:xlink="http://www.w3.org/1999/xlink" style="height:73px;width:73px;" x="0px" y="0px"
	 width="73px" height="73px" viewBox="0 0 512 512" enable-background="new 0 0 512 512" xml:space="preserve"><circle style="opacity: 1; fill: rgb(221, 221, 221);" class="outer-shape" cx="256" cy="256" r="256"></circle>
 <g id="Capa_x0020_1">
  <metadata id="CorelCorpID_0Corel-Layer"/>
  <g id="_376678360">
   <rect fill="#E75A4D" x="250" y="250" width="46828" height="33189" rx="6444" ry="6444"/>
   <polygon fill="#F6F4EC" points="18549,7972 18549,25476 32726,17291 "/>
  </g>
 </g>

<path id="youtube-3-icon" style="opacity: 1; fill: rgb(54, 56, 63);" transform="translate(100,100) scale(0.6)" d="M233.709,295.811h14.537v78.188h-14.537v-8.631c-2.68,3.181-5.465,5.604-8.363,7.268
	c-7.836,4.488-18.594,4.392-18.594-11.473v-65.352h14.538v59.936c0,3.146,0.763,5.27,3.872,5.27c2.833,0,6.773-3.635,8.547-5.855
	V295.811z M206.951,268.006h-50.245v15.384h16.937v90.608h16.371V283.39h16.938V268.006z M304.207,314.422v43.377
	c0,9.674-3.619,17.188-13.291,17.188c-5.323,0-9.756-1.945-13.809-6.998v6.01H262.43V268.006h14.678v34.122
	c3.281-3.997,7.734-7.306,12.926-7.306C300.681,294.822,304.207,303.816,304.207,314.422z M289.245,315.302
	c0-2.638-0.517-4.64-1.554-6.008c-1.758-2.321-5.042-2.571-7.586-1.284c-1.013,0.514-2.011,1.31-2.998,2.383v48.725
	c1.184,1.271,2.33,2.188,3.441,2.748c2.365,1.198,5.836,1.293,7.438-0.805c0.838-1.1,1.259-2.896,1.259-5.389V315.302z
	 M246.938,209.69c4.106,0,6.385-3.303,6.385-7.773v-38.188c0-4.594-2.004-7.829-6.685-7.829c-4.288,0-6.356,3.335-6.356,7.829
	v38.188C240.281,206.242,242.721,209.69,246.938,209.69z M462,100v312c0,27.614-22.385,50-50,50H100c-27.613,0-50-22.386-50-50V100
	c0-27.614,22.387-50,50-50h312C439.615,50,462,72.386,462,100z M281.84,209.615c0,8.11,2.479,14.665,10.662,14.665
	c4.618,0,11.028-2.403,17.643-10.249v9.063h15.264v-82.099h-15.264v62.317c-1.86,2.33-5.999,6.148-8.975,6.148
	c-3.268,0-4.066-2.229-4.066-5.531v-62.934H281.84V209.615z M224.572,162.375v40.242c0,14.468,7.561,22,22.365,22
	c12.275,0,21.944-8.21,21.944-22v-40.242c0-12.85-9.571-22.056-21.944-22.056C233.494,140.319,224.572,149.203,224.572,162.375z
	 M167.703,111.8l20.451,66.153v45.14h17.191v-45.14l20.006-66.153h-17.467l-11.014,44.485L185.018,111.8H167.703z M380.961,276.779
	c0-19.331-15.67-35.001-35-35.001H166.039c-19.33,0-35,15.67-35,35.001V365.2c0,19.33,15.67,35,35,35h179.922
	c19.33,0,35-15.67,35-35V276.779z M357.938,316.831v19.906h-27.805v14.75c0,5.865,0.496,10.938,6.349,10.938
	c6.137,0,6.494-4.13,6.494-10.938v-5.435h14.962v5.873c0,15.066-6.467,24.189-21.786,24.189c-13.881,0-20.979-10.113-20.979-24.189
	v-35.095c0-13.573,8.967-22.997,22.08-22.997C351.198,293.834,357.938,302.699,357.938,316.831z M342.976,316.686
	c0-5.283-1.12-9.163-6.349-9.163c-5.387,0-6.494,3.79-6.494,9.163v7.916h12.843V316.686z"/>
</svg>